<svg width="5533" height="5533" viewBox="0 0 5533 5533" fill="none" xmlns="http://www.w3.org/2000/svg">
<path d="M2618.77 521.189C2673.42 389.782 2859.58 389.782 2914.23 521.189L3416.81 1729.53C3439.85 1784.93 3491.95 1822.78 3551.76 1827.58L4856.27 1932.16C4998.13 1943.53 5055.66 2120.57 4947.57 2213.16L3953.67 3064.54C3908.1 3103.57 3888.2 3164.82 3902.13 3223.18L4205.78 4496.16C4238.8 4634.6 4088.2 4744.01 3966.74 4669.83L2849.9 3987.67C2798.7 3956.39 2734.3 3956.39 2683.1 3987.67L1566.26 4669.83C1444.8 4744.01 1294.2 4634.6 1327.22 4496.16L1630.87 3223.18C1644.8 3164.82 1624.9 3103.57 1579.33 3064.54L585.431 2213.16C477.345 2120.57 534.869 1943.53 676.733 1932.16L1981.24 1827.58C2041.05 1822.78 2093.15 1784.93 2116.19 1729.53L2618.77 521.189Z" fill="url(#paint0_linear_343_6)"/>
<path d="M1774 2843H2219.19L2370.29 2510.5L2508.35 3258.5L2734.46 2018L2951.57 3258.5L3106.14 2843H3850" stroke="white" stroke-width="111" stroke-linecap="round" stroke-linejoin="round"/>
<defs>
<linearGradient id="paint0_linear_343_6" x1="1161" y1="1236" x2="4026.5" y2="3487" gradientUnits="userSpaceOnUse">
<stop offset="0.0451061" stop-color="#0271F3"/>
<stop offset="0.506652" stop-color="#2596B5"/>
<stop offset="0.956682" stop-color="#48BB78"/>
</linearGradient>
</defs>
</svg>
